<svg width="48" height="48" viewBox="0 0 48 48" fill="none" xmlns="http://www.w3.org/2000/svg">
<rect width="48" height="48" fill="#323238"/>
<g clip-path="url(#clip0_61385_129)">
<path d="M37.3333 17.3334H28V14.6667H37.3333V17.3334ZM39.6347 30.6667C39.0453 32.396 36.9293 34.6667 32.8333 34.6667C28.7347 34.6667 25.4147 32.3614 25.4147 27.1C25.4147 21.8867 28.5147 19.2067 32.7027 19.2067C36.812 19.2067 39.3213 21.5827 39.8693 25.108C39.9733 25.7827 40.0147 26.692 39.996 27.9614H29.2933C29.4667 32.2427 33.9373 32.3774 35.4107 30.6667H39.6347ZM29.3867 25.3334H36.0067C35.8667 23.2707 34.492 22.3747 32.704 22.3747C30.7493 22.3747 29.668 23.3987 29.3867 25.3334ZM16.6213 34.6507H8V14.6947H17.2707C24.572 14.8027 24.7107 21.9534 20.8973 23.9027C25.512 25.5827 25.6667 34.6507 16.6213 34.6507ZM12 22.6667H16.7787C20.1227 22.6667 20.6533 18.6667 16.3627 18.6667H12V22.6667ZM16.5213 26.6667H12V30.688H16.4547C20.528 30.688 20.2787 26.6667 16.5213 26.6667Z" fill="white"/>
</g>
<defs>
<clipPath id="clip0_61385_129">
<rect width="32" height="32" fill="white" transform="translate(8 8)"/>
</clipPath>
</defs>
</svg>
